<svg version="1.1" xmlns="http://www.w3.org/2000/svg" xmlns:xlink="http://www.w3.org/1999/xlink" x="0px" y="0px" viewBox="0 0 10.95 18">
<path fill="#FFFFFF" d="M10.804,5.121l-4.95-4.95C5.85,0.167,5.843,0.166,5.839,0.161C5.748,0.063,5.62,0,5.475,0
	S5.203,0.063,5.111,0.161c-0.004,0.004-0.011,0.006-0.015,0.01l-4.95,4.95c-0.195,0.196-0.195,0.512,0,0.708
	c0.196,0.195,0.512,0.195,0.707,0l4.122-4.122V17.5c0,0.276,0.224,0.5,0.5,0.5s0.5-0.224,0.5-0.5V1.708l4.122,4.121
	c0.195,0.195,0.511,0.195,0.707,0C10.999,5.633,10.999,5.317,10.804,5.121z"/>
</svg>
