<svg version="1.1" xmlns="http://www.w3.org/2000/svg" xmlns:xlink="http://www.w3.org/1999/xlink" x="0px" y="0px" viewBox="0 0 10.899 10.9">
<path fill="#FFFFFF" d="M6.157,5.45l4.596-4.596c0.195-0.195,0.195-0.512,0-0.707c-0.195-0.196-0.512-0.196-0.707,0L5.45,4.743
	L0.854,0.146c-0.195-0.195-0.512-0.195-0.707,0s-0.195,0.512,0,0.707L4.743,5.45l-4.596,4.596c-0.195,0.195-0.195,0.512,0,0.707
	s0.512,0.195,0.707,0L5.45,6.157l4.596,4.596c0.195,0.196,0.512,0.195,0.707,0s0.195-0.512,0-0.707L6.157,5.45z"/>
</svg>
